<!-- Created with Inkscape (http://www.inkscape.org/) -->
<svg id="svg2" xmlns:rdf="http://www.w3.org/1999/02/22-rdf-syntax-ns#" style="enable-background:new" xmlns="http://www.w3.org/2000/svg" version="1.1" xmlns:cc="http://creativecommons.org/ns#" xmlns:dc="http://purl.org/dc/elements/1.1/" viewBox="0 0 300.60001 353.00041">
 <metadata id="metadata7">
  <rdf:RDF>
   <cc:Work rdf:about="">
    <dc:format>image/svg+xml</dc:format>
    <dc:type rdf:resource="http://purl.org/dc/dcmitype/StillImage"/>
    <dc:title/>
   </cc:Work>
  </rdf:RDF>
 </metadata>
 <g id="layer-car" transform="translate(0.3 -700.86)">
  <rect id="rect5836" ry="23.299" height="315" width="283" stroke="#000" y="724.66" x="8.5" stroke-width="0.6" fill="#ffcb48"/>
  <g id="g4324">
   <g id="g4319">
    <g id="g5873" transform="translate(363 8.1333)">
     <rect id="rect5871" ry="15.299" height="115" width="74" stroke="#000" y="858.36" x="-290" stroke-width="0.6"/>
    </g>
    <rect id="rect4300" ry="15.299" height="34" width="65" stroke="#fff" y="842.36" x="77.5" stroke-width="0.6"/>
   </g>
   <g id="g4315" stroke-width="0.6">
    <rect id="rect5879" ry="15.299" height="115" width="74" stroke="#000" y="866.5" x="153"/>
    <rect id="rect4304" ry="15.299" height="34" width="65" stroke="#fff" y="842.36" x="157.5"/>
   </g>
   <g stroke="#000" stroke-width="0.6">
    <path id="rect5821" d="m71.299 810.5c-12.908 0-23.299 10.39-23.299 23.29v115.4c0 12.908 10.391 23.299 23.299 23.299h161.4c12.91 0.01 23.3-10.39 23.3-23.29v-115.4c0-12.908-10.391-23.299-23.299-23.299h-161.4zm8 17h146.4c7.3678 0 13.299 5.931 13.299 13.299v29.402c0 7.3678-5.931 13.299-13.299 13.299h-146.4c-7.369 0-13.3-5.94-13.3-13.3v-29.402c0-7.3678 5.931-13.299 13.299-13.299z" fill="#808ac8"/>
    <rect id="rect5811" ry="8.25" height="85" width="37" y="934.5" x="26"/>
    <rect id="rect5815" ry="8.25" height="85" width="37" y="934.5" x="237"/>
   </g>
   <g fill="#808ac8">
    <rect id="rect4136" ry="23.299" height="85" width="53" y="916.5" x="19"/>
    <rect id="rect5817" ry="23.299" height="85" width="53" y="916.5" x="228"/>
    <rect id="rect5819" ry="23.299" height="96" width="230" stroke="#000" y="892.5" x="36.5" stroke-width="0.6"/>
   </g>
   <g stroke="#000" stroke-width="0.6">
    <rect id="rect5828" ry="7" height="18" width="33" y="911.5" x="52" fill="#ce3c3c"/>
    <rect id="rect5830" ry="7" height="18" width="33" y="911.5" x="218" fill="#ce3c3c"/>
    <rect id="rect5832" ry="7" height="34" width="82" y="938.5" x="111" fill="#fff"/>
   </g>
  </g>
 </g>
 <g id="layer-door" transform="translate(0.3 1.5002)" stroke-width="0.6">
  <g id="g6012" transform="translate(0 -1.5002)">
   <rect id="rect5977" ry="10.299" height="70" width="300" stroke="#333" y="0.3" x="0" fill="#bb8531"/>
   <g stroke="#9c6f27" fill="#ce973f">
    <rect id="rect6000" ry="10.299" height="42" width="60" y="14.3" x="18"/>
    <rect id="rect6006" ry="10.299" height="42" width="60" y="14.3" x="86"/>
    <rect id="rect6008" ry="10.299" height="42" width="60" y="14.3" x="154"/>
    <rect id="rect6010" ry="10.299" height="42" width="60" y="14.3" x="222"/>
   </g>
  </g>
  <g id="g6019" transform="translate(0 69.1)">
   <rect id="rect6021" ry="10.299" height="70" width="300" stroke="#333" y="0.3" x="0" fill="#bb8531"/>
   <g stroke="#9c6f27" fill="#ce973f">
    <rect id="rect6023" ry="10.299" height="42" width="60" y="14.3" x="18"/>
    <rect id="rect6025" ry="10.299" height="42" width="60" y="14.3" x="86"/>
    <rect id="rect6027" ry="10.299" height="42" width="60" y="14.3" x="154"/>
    <rect id="rect6029" ry="10.299" height="42" width="60" y="14.3" x="222"/>
   </g>
  </g>
  <g id="g6031" transform="translate(0,139.7)">
   <rect id="rect6033" ry="10.299" height="70" width="300" stroke="#333" y="0.3" x="0" fill="#bb8531"/>
   <g stroke="#9c6f27" fill="#ce973f">
    <rect id="rect6035" ry="10.299" height="42" width="60" y="14.3" x="18"/>
    <rect id="rect6037" ry="10.299" height="42" width="60" y="14.3" x="86"/>
    <rect id="rect6039" ry="10.299" height="42" width="60" y="14.3" x="154"/>
    <rect id="rect6041" ry="10.299" height="42" width="60" y="14.3" x="222"/>
   </g>
  </g>
  <g id="g6043" transform="translate(0 210.3)">
   <rect id="rect6045" ry="10.299" height="70" width="300" stroke="#333" y="0.3" x="0" fill="#bb8531"/>
   <g stroke="#9c6f27" fill="#ce973f">
    <rect id="rect6047" ry="10.299" height="42" width="60" y="14.3" x="18"/>
    <rect id="rect6049" ry="10.299" height="42" width="60" y="14.3" x="86"/>
    <rect id="rect6051" ry="10.299" height="42" width="60" y="14.3" x="154"/>
    <rect id="rect6053" ry="10.299" height="42" width="60" y="14.3" x="222"/>
   </g>
  </g>
  <g id="g6055" transform="translate(0 280.9)">
   <rect id="rect6057" ry="10.299" height="70" width="300" stroke="#333" y="0.3" x="0" fill="#bb8531"/>
   <g stroke="#9c6f27" fill="#ce973f">
    <rect id="rect6059" ry="10.299" height="42" width="60" y="14.3" x="18"/>
    <rect id="rect6061" ry="10.299" height="42" width="60" y="14.3" x="86"/>
    <rect id="rect6063" ry="10.299" height="42" width="60" y="14.3" x="154"/>
    <rect id="rect6065" ry="10.299" height="42" width="60" y="14.3" x="222"/>
   </g>
  </g>
 </g>
</svg>
